<!-- icon666.com - MILLIONS OF FREE VECTOR ICONS --><svg viewBox="-4 0 512 512" xmlns="http://www.w3.org/2000/svg"><path d="m368 96v48l-32-32s-36.640625 16-80 16c-43.441406 0-80-16-80-16l-32 31.910156v-39.910156c0-53.039062 42.878906-96 96-96h80v40c26.488281 0 48 21.441406 48 48zm0 0" fill="#ffce54"></path><path d="m320 48v-40h-32v56c26.488281 0 48 13.441406 48 40v8l32 32v-48c0-26.558594-21.511719-48-48-48zm0 0" fill="#f6bb42"></path><path d="m368 144v40c0 44.640625-26.160156 83.191406-64 101.191406-14.550781 6.96875-30.871094 10.808594-48 10.808594-17.191406 0-33.441406-3.839844-48-10.808594-37.832031-18-64-56.550781-64-101.191406v-40.089844l32-31.910156s36.558594 16 80 16c43.359375 0 80-16 80-16zm0 0" fill="#eac6bb"></path><path d="m336 112v72c0 44.640625-26.160156 83.191406-64 101.191406-9.9375 4.753906-20.734375 7.921875-32.015625 9.527344 5.238281.769531 10.558594 1.28125 16.015625 1.28125 17.128906 0 33.449219-3.839844 48-10.808594 37.839844-18 64-56.550781 64-101.191406v-40zm0 0" fill="#d3b1a9"></path><path d="m304 285.191406v34.808594l-24 16-24-8-24 8-24-16v-34.808594c14.558594 6.960938 30.808594 10.808594 48 10.808594 17.128906 0 33.449219-3.839844 48-10.808594zm0 0" fill="#f5f7fa"></path><path d="m256 464c0 13.28125-10.800781 24-24 24h-120v-112c0-30.960938 25.046875-56 56-56h40l24 16 24-8 24 8 24-16h40c30.878906 0 56 25.039062 56 56v112h-120c-13.273438 0-24-10.71875-24-24zm0 0" fill="#5d9cec"></path><path d="m344 320h-32c30.878906 0 56 25.039062 56 56v112h32v-112c0-30.960938-25.121094-56-56-56zm0 0" fill="#4a89dc"></path><path d="m456.238281 240c-4.421875 0-8.039062-3.574219-8.039062-8s3.535156-8 7.953125-8h.085937c4.417969 0 8 3.574219 8 8s-3.582031 8-8 8zm0 0"></path><path d="m456 216c-4.425781 0-8-3.574219-8-8 0-18.03125 11.753906-26.449219 21.191406-33.207031 10.089844-7.234375 18.808594-13.464844 18.808594-30.792969 0-17.648438-14.351562-32-32-32s-32 14.351562-32 32c0 4.425781-3.574219 8-8 8s-8-3.574219-8-8c0-26.472656 21.527344-48 48-48s48 21.527344 48 48c0 25.542969-14.136719 35.671875-25.496094 43.800781-9.527344 6.824219-14.503906 10.824219-14.503906 20.199219 0 4.425781-3.574219 8-8 8zm0 0"></path><path d="m48.238281 240c-4.421875 0-8.039062-3.574219-8.039062-8s3.535156-8 7.953125-8h.085937c4.417969 0 8 3.574219 8 8s-3.582031 8-8 8zm0 0"></path><path d="m48 216c-4.425781 0-8-3.574219-8-8 0-18.03125 11.753906-26.449219 21.191406-33.207031 10.089844-7.234375 18.808594-13.464844 18.808594-30.792969 0-17.648438-14.351562-32-32-32s-32 14.351562-32 32c0 4.425781-3.574219 8-8 8s-8-3.574219-8-8c0-26.472656 21.527344-48 48-48s48 21.527344 48 48c0 25.542969-14.136719 35.671875-25.496094 43.800781-9.527344 6.824219-14.503906 10.824219-14.503906 20.199219 0 4.425781-3.574219 8-8 8zm0 0"></path><path d="m400 384c-4.425781 0-8-3.574219-8-8 0-26.472656-21.527344-48-48-48-4.425781 0-8-3.574219-8-8s3.574219-8 8-8c35.289062 0 64 28.710938 64 64 0 4.425781-3.574219 8-8 8zm0 0"></path><path d="m344 328h-40c-4.425781 0-8-3.574219-8-8s3.574219-8 8-8h40c4.425781 0 8 3.574219 8 8s-3.574219 8-8 8zm0 0"></path><path d="m400 464c-4.425781 0-8-3.574219-8-8v-78.839844c0-4.425781 3.574219-8 8-8s8 3.574219 8 8v78.839844c0 4.425781-3.574219 8-8 8zm0 0"></path><path d="m112 384c-4.425781 0-8-3.574219-8-8 0-35.289062 28.710938-64 64-64 4.425781 0 8 3.574219 8 8s-3.574219 8-8 8c-26.472656 0-48 21.527344-48 48 0 4.425781-3.574219 8-8 8zm0 0"></path><path d="m208 328h-40c-4.425781 0-8-3.574219-8-8s3.574219-8 8-8h40c4.425781 0 8 3.574219 8 8s-3.574219 8-8 8zm0 0"></path><path d="m112 464c-4.425781 0-8-3.574219-8-8v-78.839844c0-4.425781 3.574219-8 8-8s8 3.574219 8 8v78.839844c0 4.425781-3.574219 8-8 8zm0 0"></path><path d="m208 328c-4.425781 0-8-3.574219-8-8v-34.785156c0-4.421875 3.574219-8 8-8s8 3.578125 8 8v34.785156c0 4.425781-3.574219 8-8 8zm0 0"></path><path d="m304 328c-4.425781 0-8-3.574219-8-8v-34.785156c0-4.421875 3.574219-8 8-8s8 3.578125 8 8v34.785156c0 4.425781-3.574219 8-8 8zm0 0"></path><path d="m256 304c-66.167969 0-120-53.832031-120-120 0-4.425781 3.574219-8 8-8s8 3.574219 8 8c0 57.34375 46.65625 104 104 104s104-46.65625 104-104c0-4.425781 3.574219-8 8-8s8 3.574219 8 8c0 66.167969-53.832031 120-120 120zm0 0"></path><path d="m144 191.816406c-4.425781 0-8-3.578125-8-8v-79.816406c0-4.425781 3.574219-8 8-8s8 3.574219 8 8v79.816406c0 4.414063-3.574219 8-8 8zm0 0"></path><path d="m368 192.007812c-4.425781 0-8-3.574218-8-8v-88c0-4.421874 3.574219-8 8-8s8 3.578126 8 8v88c0 4.425782-3.574219 8-8 8zm0 0"></path><path d="m368 104c-4.425781 0-8-3.574219-8-8 0-22.054688-17.945312-40-40-40-4.425781 0-8-3.574219-8-8s3.574219-8 8-8c30.871094 0 56 25.128906 56 56 0 4.425781-3.574219 8-8 8zm0 0"></path><path d="m320 56c-4.425781 0-8-3.574219-8-8v-40c0-4.425781 3.574219-8 8-8s8 3.574219 8 8v40c0 4.425781-3.574219 8-8 8zm0 0"></path><path d="m320 16h-80c-4.425781 0-8-3.574219-8-8s3.574219-8 8-8h80c4.425781 0 8 3.574219 8 8s-3.574219 8-8 8zm0 0"></path><path d="m144 112c-4.425781 0-8-3.574219-8-8 0-57.34375 46.65625-104 104-104 4.425781 0 8 3.574219 8 8s-3.574219 8-8 8c-48.519531 0-88 39.480469-88 88 0 4.425781-3.574219 8-8 8zm0 0"></path><path d="m368 152c-2.046875 0-4.097656-.785156-5.65625-2.34375l-32-32c-3.128906-3.128906-3.128906-8.183594 0-11.3125s8.183594-3.128906 11.3125 0l32 32c3.128906 3.128906 3.128906 8.183594 0 11.3125-1.558594 1.558594-3.609375 2.34375-5.65625 2.34375zm0 0"></path><path d="m256 136c-44.59375 0-81.648438-15.992188-83.199219-16.671875-4.046875-1.769531-5.890625-6.488281-4.128906-10.527344 1.761719-4.039062 6.464844-5.898437 10.527344-4.128906.351562.152344 35.671875 15.328125 76.800781 15.328125 41.28125 0 76.449219-15.175781 76.800781-15.328125 4.046875-1.792969 8.765625.082031 10.527344 4.128906 1.777344 4.046875-.070313 8.757813-4.128906 10.527344-1.550781.679687-38.605469 16.671875-83.199219 16.671875zm0 0"></path><path d="m144 151.902344c-2.054688 0-4.105469-.78125-5.664062-2.351563-3.121094-3.125-3.121094-8.191406.015624-11.3125l32-31.902343c3.136719-3.121094 8.191407-3.121094 11.3125.015624 3.121094 3.128907 3.121094 8.191407-.015624 11.3125l-32 31.902344c-1.558594 1.5625-3.601563 2.335938-5.648438 2.335938zm0 0"></path><path d="m231.992188 344c-1.519532 0-3.0625-.441406-4.433594-1.34375l-24-16c-3.679688-2.457031-4.671875-7.417969-2.214844-11.097656 2.449219-3.679688 7.398438-4.671875 11.097656-2.214844l24 16c3.679688 2.457031 4.671875 7.417969 2.214844 11.097656-1.535156 2.3125-4.082031 3.558594-6.664062 3.558594zm0 0"></path><path d="m232 344c-3.351562 0-6.472656-2.121094-7.585938-5.472656-1.398437-4.191406.867188-8.726563 5.058594-10.121094l24-8c4.230469-1.40625 8.726563.867188 10.121094 5.058594 1.398438 4.191406-.867188 8.726562-5.058594 10.121094l-24 8c-.847656.277343-1.703125.414062-2.535156.414062zm0 0"></path><path d="m280.007812 344c-2.582031 0-5.128906-1.246094-6.664062-3.558594-2.457031-3.679687-1.464844-8.640625 2.214844-11.097656l24-16c3.679687-2.457031 8.640625-1.464844 11.097656 2.214844 2.457031 3.679687 1.464844 8.640625-2.214844 11.097656l-24 16c-1.371094.902344-2.914062 1.34375-4.433594 1.34375zm0 0"></path><path d="m280 344c-.832031 0-1.6875-.136719-2.527344-.414062l-24-8c-4.183594-1.394532-6.457031-5.921876-5.058594-10.121094 1.402344-4.183594 5.882813-6.464844 10.121094-5.058594l24 8c4.183594 1.394531 6.457032 5.921875 5.058594 10.121094-1.121094 3.351562-4.242188 5.472656-7.59375 5.472656zm0 0"></path><path d="m256.238281 376c-4.421875 0-8.039062-3.574219-8.039062-8s3.535156-8 7.953125-8h.085937c4.417969 0 8 3.574219 8 8s-3.582031 8-8 8zm0 0"></path><path d="m256.238281 416c-4.421875 0-8.039062-3.574219-8.039062-8s3.535156-8 7.953125-8h.085937c4.417969 0 8 3.574219 8 8s-3.582031 8-8 8zm0 0"></path><path d="m280 496c-17.648438 0-32-14.351562-32-32 0-4.425781 3.574219-8 8-8s8 3.574219 8 8c0 8.824219 7.175781 16 16 16 4.425781 0 8 3.574219 8 8s-3.574219 8-8 8zm0 0"></path><path d="m464 496h-184c-4.425781 0-8-3.574219-8-8s3.574219-8 8-8h184c4.425781 0 8 3.574219 8 8s-3.574219 8-8 8zm0 0"></path><path d="m448 512c-2.046875 0-4.097656-.785156-5.65625-2.34375-3.128906-3.128906-3.128906-8.183594 0-11.3125l16-16c3.128906-3.128906 8.183594-3.128906 11.3125 0s3.128906 8.183594 0 11.3125l-16 16c-1.558594 1.558594-3.609375 2.34375-5.65625 2.34375zm0 0"></path><path d="m464 496c-2.046875 0-4.097656-.785156-5.65625-2.34375l-16-16c-3.128906-3.128906-3.128906-8.183594 0-11.3125s8.183594-3.128906 11.3125 0l16 16c3.128906 3.128906 3.128906 8.183594 0 11.3125-1.558594 1.558594-3.609375 2.34375-5.65625 2.34375zm0 0"></path><path d="m256 472c-4.425781 0-8-3.574219-8-8v-16c0-4.425781 3.574219-8 8-8s8 3.574219 8 8v16c0 4.425781-3.574219 8-8 8zm0 0"></path><path d="m232 496c-4.425781 0-8-3.574219-8-8s3.574219-8 8-8c8.824219 0 16-7.175781 16-16 0-4.425781 3.574219-8 8-8s8 3.574219 8 8c0 17.648438-14.351562 32-32 32zm0 0"></path><path d="m232 496h-184c-4.425781 0-8-3.574219-8-8s3.574219-8 8-8h184c4.425781 0 8 3.574219 8 8s-3.574219 8-8 8zm0 0"></path><path d="m64 512c-2.046875 0-4.097656-.785156-5.65625-2.34375l-16-16c-3.128906-3.128906-3.128906-8.183594 0-11.3125s8.183594-3.128906 11.3125 0l16 16c3.128906 3.128906 3.128906 8.183594 0 11.3125-1.558594 1.558594-3.609375 2.34375-5.65625 2.34375zm0 0"></path><path d="m48 496c-2.046875 0-4.097656-.785156-5.65625-2.34375-3.128906-3.128906-3.128906-8.183594 0-11.3125l16-16c3.128906-3.128906 8.183594-3.128906 11.3125 0s3.128906 8.183594 0 11.3125l-16 16c-1.558594 1.558594-3.609375 2.34375-5.65625 2.34375zm0 0"></path></svg>