<!-- icon666.com - MILLIONS OF FREE VECTOR ICONS --><svg id="Master_Line" enable-background="new 0 0 512 512" viewBox="0 0 512 512" xmlns="http://www.w3.org/2000/svg"><g><path d="m392.12 92.8c-1.67-6.01-7.14-10.17-13.38-10.17h-245.48c-6.24 0-11.71 4.16-13.38 10.17l-22.48 80.98c-1.23 4.42 2.1 8.8 6.69 8.8h303.83c4.59 0 7.92-4.38 6.69-8.8zm-218.15 59.64c-1.32 0-2.58-.75-3.17-2.02-.82-1.75-.06-3.83 1.69-4.65l93.39-43.52c1.75-.82 3.83-.06 4.65 1.69s.06 3.83-1.69 4.65l-93.39 43.52c-.48.23-.98.33-1.48.33zm186.79-48.08-130.13 60.64c-.48.22-.98.33-1.48.33-1.32 0-2.58-.75-3.17-2.02-.82-1.75-.06-3.83 1.69-4.65l130.13-60.65c1.75-.82 3.83-.06 4.65 1.69.82 1.76.06 3.84-1.69 4.66z"></path><path d="m96.89 379.74c-1.79-.6-3.6-1.15-5.42-1.68-1.83-.52-3.47-1.13-4.92-1.84s-2.63-1.55-3.52-2.52-1.34-2.2-1.34-3.69c0-2.16.89-3.91 2.68-5.25s4.1-2.01 6.93-2.01c2.24 0 4.54.47 6.93 1.4 1.21.47 2.43 1.08 3.64 1.82 1.96 1.19 4.52.51 5.56-1.53l4.92-9.64c.99-1.94.14-4.31-1.85-5.21-3.06-1.38-6.22-2.48-9.48-3.31-2.54-.65-5.03-1.1-7.45-1.39v-8.67c0-1.35-1.09-2.44-2.44-2.44h-12.34c-1.35 0-2.44 1.09-2.44 2.44v10.16c-.18.06-.36.12-.53.18-3.62 1.34-6.67 3.22-9.17 5.64s-4.43 5.33-5.81 8.72-2.07 7.17-2.07 11.35c0 4.17.65 7.62 1.96 10.34 1.3 2.72 3.02 4.97 5.14 6.76s4.54 3.22 7.27 4.3c2.72 1.08 5.49 2.07 8.33 2.96 2.38.82 4.42 1.56 6.09 2.24 1.68.67 3.04 1.4 4.08 2.18s1.79 1.64 2.24 2.57.67 2.03.67 3.3c0 2.09-.88 3.95-2.63 5.59s-4.42 2.46-7.99 2.46c-3.13 0-6.3-.71-9.5-2.12-2.09-.92-4.19-2.16-6.31-3.72-1.85-1.36-4.49-.73-5.57 1.3l-5.59 10.52c-.95 1.79-.32 4 1.41 5.06 5.7 3.47 11.7 5.74 18 6.8v9.05c0 1.35 1.09 2.44 2.44 2.44h12.34c1.35 0 2.44-1.09 2.44-2.44v-9.08c1.81-.33 3.53-.77 5.16-1.32 4.06-1.38 7.49-3.32 10.28-5.81 2.79-2.5 4.92-5.49 6.37-9 1.45-3.5 2.18-7.41 2.18-11.74 0-6.41-1.66-11.61-4.97-15.59-3.33-4.01-8.57-7.2-15.72-9.58z"></path><circle cx="87.03" cy="298.91" r="10.89"></circle><path d="m219.21 40.96c.62 1.21 1.85 1.9 3.12 1.9.54 0 1.08-.12 1.6-.39 1.72-.88 2.4-2.99 1.51-4.71l-11.9-23.16c-.88-1.72-2.99-2.4-4.71-1.51-1.72.88-2.4 2.99-1.51 4.71z"></path><path d="m300.1 42.8c.48.23.99.34 1.49.34 1.31 0 2.57-.74 3.17-2.01l11.11-23.55c.83-1.75.08-3.83-1.67-4.66s-3.83-.08-4.66 1.67l-11.11 23.55c-.82 1.74-.07 3.83 1.67 4.66z"></path><path d="m310.4 422.73c-.82-1.75-2.9-2.51-4.65-1.69s-2.51 2.9-1.69 4.65l11.02 23.59c.59 1.27 1.86 2.02 3.17 2.02.5 0 1-.11 1.48-.33 1.75-.82 2.51-2.9 1.69-4.65z"></path><path d="m229.63 417.83c-1.71-.89-3.83-.22-4.72 1.49l-12 23.11c-.89 1.72-.22 3.83 1.49 4.72.52.27 1.07.39 1.61.39 1.27 0 2.49-.69 3.11-1.89l12-23.11c.89-1.71.22-3.82-1.49-4.71z"></path><path d="m487.15 137.56h-45.47c-1.93 0-3.5 1.57-3.5 3.5s1.57 3.5 3.5 3.5h45.47c1.9 0 3.44 1.54 3.44 3.44v19.99c0 1.69-1.26 3.16-2.93 3.41l-48.35 7.26-24.98-92.7c-4.49-16.65-19.66-28.28-36.91-28.28h-242.84c-17.24 0-32.42 11.63-36.91 28.28l-24.98 92.7-48.36-7.26c-1.7-.25-2.93-1.69-2.93-3.41v-19.99c0-1.9 1.54-3.44 3.44-3.44h43.53c1.93 0 3.5-1.57 3.5-3.5s-1.57-3.5-3.5-3.5h-43.52c-5.76 0-10.44 4.69-10.44 10.44v19.99c0 5.21 3.74 9.56 8.89 10.33l46.27 6.94-33.63 56.04c-.33.54-.5 1.17-.5 1.8v58.98l-16.65 17.13c-2.83 2.91-4.38 6.74-4.38 10.79v153.95c0 8.53 6.94 15.48 15.48 15.48h116.39c8.53 0 15.48-6.94 15.48-15.48v-79.29h241.11v42.27c0 9.59 7.8 17.39 17.39 17.39h27.8c9.59 0 17.39-7.8 17.39-17.39v-53.58c6.86-6.91 11.11-16.42 11.11-26.91v-123.34c0-.63-.17-1.26-.5-1.8l-33.63-56.04 46.27-6.94c5.07-.76 8.89-5.2 8.89-10.33v-19.99c0-5.75-4.69-10.44-10.44-10.44zm-332.39 346.38c0 4.67-3.8 8.48-8.48 8.48h-116.39c-4.67 0-8.48-3.8-8.48-8.48v-153.94c0-2.22.85-4.32 2.4-5.91l58.2-59.85c1.61-1.66 3.77-2.57 6.08-2.57s4.47.91 6.08 2.57l58.2 59.85c1.55 1.59 2.4 3.69 2.4 5.91v153.94zm303.69-37.02c0 5.73-4.66 10.39-10.39 10.39h-27.8c-5.73 0-10.39-4.66-10.39-10.39v-42.27h28.46c7.38 0 14.26-2.11 20.11-5.74v48.01zm11.11-202.85v122.35c0 17.22-14.01 31.22-31.22 31.22h-44.6l-15.89-38.3c-3.78-9.12-12.6-15.01-22.47-15.01h-178.78c-1.93 0-3.5 1.57-3.5 3.5s1.57 3.5 3.5 3.5h178.77c7.03 0 13.31 4.2 16.01 10.69l14.78 35.62h-224.4v-67.64c0-3.58-1.22-6.99-3.45-9.73h238.59c4.58 0 8.91-1.77 12.18-4.98l16.21-15.91c3.31-3.25 5.21-7.77 5.21-12.41v-61.98c0-9.59-7.8-17.39-17.39-17.39h-314.22c-9.59 0-17.39 7.8-17.39 17.39 0 1.93 1.57 3.5 3.5 3.5s3.5-1.57 3.5-3.5c0-5.73 4.66-10.39 10.39-10.39h314.21c5.73 0 10.39 4.66 10.39 10.39v61.98c0 2.77-1.13 5.47-3.11 7.41l-16.21 15.91c-1.95 1.92-4.54 2.98-7.28 2.98h-245.29l-42.97-44.19c-.78-2.23-1.2-4.57-1.2-6.96 0-11.59 9.43-21.01 21.01-21.01 11.59 0 21.01 9.43 21.01 21.01 0 4.87-1.61 9.43-4.67 13.21-1.22 1.5-.98 3.71.52 4.92.65.52 1.43.78 2.2.78 1.02 0 2.03-.44 2.72-1.3 4.02-4.96 6.23-11.22 6.23-17.61 0-15.45-12.57-28.01-28.01-28.01-14.96 0-27.22 11.8-27.97 26.58l-1.28-1.31c-2.94-3.02-6.88-4.69-11.1-4.69s-8.16 1.66-11.1 4.69l-34.54 35.52v-50.81l35.82-59.69c.17-.28.28-.59.36-.89h.02l25.79-95.72c3.66-13.6 16.06-23.1 30.15-23.1h242.84c14.08 0 26.48 9.5 30.15 23.1l25.79 95.72c.01 0 .01 0 .01-.01.08.31.19.61.36.9z"></path><path d="m383.57 290.12c15.45 0 28.01-12.57 28.01-28.01 0-15.45-12.57-28.01-28.01-28.01s-28.01 12.57-28.01 28.01 12.56 28.01 28.01 28.01zm0-49.02c11.58 0 21.01 9.43 21.01 21.01s-9.43 21.01-21.01 21.01-21.01-9.43-21.01-21.01c0-11.59 9.42-21.01 21.01-21.01z"></path><path d="m278.34 294.78c1.93 0 3.5-1.57 3.5-3.5v-58.35c0-1.93-1.57-3.5-3.5-3.5s-3.5 1.57-3.5 3.5v58.35c0 1.94 1.57 3.5 3.5 3.5z"></path><path d="m323.02 294.78c1.93 0 3.5-1.57 3.5-3.5v-58.35c0-1.93-1.57-3.5-3.5-3.5s-3.5 1.57-3.5 3.5v58.35c0 1.94 1.57 3.5 3.5 3.5z"></path><path d="m188.98 294.78c1.93 0 3.5-1.57 3.5-3.5v-58.35c0-1.93-1.57-3.5-3.5-3.5s-3.5 1.57-3.5 3.5v58.35c0 1.94 1.56 3.5 3.5 3.5z"></path><path d="m233.66 294.78c1.93 0 3.5-1.57 3.5-3.5v-58.35c0-1.93-1.57-3.5-3.5-3.5s-3.5 1.57-3.5 3.5v58.35c0 1.94 1.57 3.5 3.5 3.5z"></path></g></svg>