<!-- icon666.com - MILLIONS OF FREE VECTOR ICONS --><svg viewBox="-11 0 478 478" xmlns="http://www.w3.org/2000/svg"><path d="m212 220h192v40h-192zm0 0" fill="#ffd740"></path><path d="m52 146h96v40h-96zm0 0" fill="#40c4ff"></path><g fill="#263238"><path d="m376 24h-32c-2.207031 0-4-1.792969-4-4s1.792969-4 4-4h32c2.207031 0 4 1.792969 4 4s-1.792969 4-4 4zm0 0"></path><path d="m360 40c-2.207031 0-4-1.792969-4-4v-32c0-2.207031 1.792969-4 4-4s4 1.792969 4 4v32c0 2.207031-1.792969 4-4 4zm0 0"></path><path d="m424 68h-32c-2.207031 0-4-1.792969-4-4s1.792969-4 4-4h32c2.207031 0 4 1.792969 4 4s-1.792969 4-4 4zm0 0"></path><path d="m408 84c-2.207031 0-4-1.792969-4-4v-32c0-2.207031 1.792969-4 4-4s4 1.792969 4 4v32c0 2.207031-1.792969 4-4 4zm0 0"></path><path d="m452 202h-76c-2.207031 0-4-1.792969-4-4v-76c0-1.617188.976562-3.078125 2.472656-3.695312 1.496094-.625 3.207032-.273438 4.359375.863281l76 76c1.144531 1.144531 1.488281 2.863281.863281 4.359375s-2.078124 2.472656-3.695312 2.472656zm-72-8h62.34375l-62.34375-62.34375zm0 0"></path><path d="m432 478h-248c-13.230469 0-24-10.769531-24-24v-312c0-13.230469 10.769531-24 24-24h192c1.0625 0 2.078125.425781 2.832031 1.167969l76 76c.753907.753906 1.167969 1.769531 1.167969 2.832031v256c0 13.230469-10.769531 24-24 24zm-248-352c-8.824219 0-16 7.175781-16 16v312c0 8.824219 7.175781 16 16 16h248c8.824219 0 16-7.175781 16-16v-254.34375l-73.65625-73.65625zm0 0"></path><path d="m404 306h-192c-2.207031 0-4-1.792969-4-4s1.792969-4 4-4h192c2.207031 0 4 1.792969 4 4s-1.792969 4-4 4zm0 0"></path><path d="m404 346h-192c-2.207031 0-4-1.792969-4-4s1.792969-4 4-4h192c2.207031 0 4 1.792969 4 4s-1.792969 4-4 4zm0 0"></path><path d="m404 386h-192c-2.207031 0-4-1.792969-4-4s1.792969-4 4-4h192c2.207031 0 4 1.792969 4 4s-1.792969 4-4 4zm0 0"></path><path d="m404 386h-192c-2.207031 0-4-1.792969-4-4s1.792969-4 4-4h192c2.207031 0 4 1.792969 4 4s-1.792969 4-4 4zm0 0"></path><path d="m292 86h-76c-2.207031 0-4-1.792969-4-4v-76c0-1.617188.976562-3.078125 2.472656-3.695312 1.503906-.625 3.214844-.28125 4.359375.863281l76 76c1.144531 1.144531 1.488281 2.863281.863281 4.359375s-2.078124 2.472656-3.695312 2.472656zm-72-8h62.34375l-62.34375-62.34375zm0 0"></path><path d="m148 362h-124c-13.230469 0-24-10.769531-24-24v-312c0-13.230469 10.769531-24 24-24h192c1.0625 0 2.078125.425781 2.832031 1.167969l76 76c.753907.753906 1.167969 1.769531 1.167969 2.832031v24c0 2.207031-1.792969 4-4 4s-4-1.792969-4-4v-22.34375l-73.65625-73.65625h-190.34375c-8.824219 0-16 7.175781-16 16v312c0 8.824219 7.175781 16 16 16h124c2.207031 0 4 1.792969 4 4s-1.792969 4-4 4zm0 0"></path><path d="m148 110h-96c-2.207031 0-4-1.792969-4-4s1.792969-4 4-4h96c2.207031 0 4 1.792969 4 4s-1.792969 4-4 4zm0 0"></path><path d="m148 150h-96c-2.207031 0-4-1.792969-4-4s1.792969-4 4-4h96c2.207031 0 4 1.792969 4 4s-1.792969 4-4 4zm0 0"></path><path d="m148 190h-96c-2.207031 0-4-1.792969-4-4s1.792969-4 4-4h96c2.207031 0 4 1.792969 4 4s-1.792969 4-4 4zm0 0"></path><path d="m148 230h-96c-2.207031 0-4-1.792969-4-4s1.792969-4 4-4h96c2.207031 0 4 1.792969 4 4s-1.792969 4-4 4zm0 0"></path><path d="m148 270h-96c-2.207031 0-4-1.792969-4-4s1.792969-4 4-4h96c2.207031 0 4 1.792969 4 4s-1.792969 4-4 4zm0 0"></path><path d="m132 414h-80c-2.207031 0-4-1.792969-4-4s1.792969-4 4-4h80c2.207031 0 4 1.792969 4 4s-1.792969 4-4 4zm0 0"></path><path d="m36 414h-8c-2.207031 0-4-1.792969-4-4s1.792969-4 4-4h8c2.207031 0 4 1.792969 4 4s-1.792969 4-4 4zm0 0"></path><path d="m404 226h-192c-2.207031 0-4-1.792969-4-4s1.792969-4 4-4h192c2.207031 0 4 1.792969 4 4s-1.792969 4-4 4zm0 0"></path><path d="m404 266h-192c-2.207031 0-4-1.792969-4-4s1.792969-4 4-4h192c2.207031 0 4 1.792969 4 4s-1.792969 4-4 4zm0 0"></path></g></svg>